PathFileType	4	(X/Y/Z)	./resultDataOpenSim/trcMotMarkerGrf/sub06/qtm-05-07.trc
DataRate	CameraRate	NumFrames	NumMarkers	Units	OrigDataRate	OrigDataStartFrame	OrigNumFrames
250.000000	250.000000	10	24	m	250.000000	1	533
Frame#	Time	L.Toe.Tip			R.Toe.Tip			L.Ankle.Lat			R.Ankle.Lat			L.Ankle.Med			R.Ankle.Med			L.Heel			R.Heel			L.Knee.Lat			R.Knee.Lat			L.Knee.Med			R.Knee.Med			L.Thigh.Upper			R.Thigh.Upper			L.ASIS			R.ASIS			V.Sacral			L.Acromium			R.Acromium			C7			L.Elbow			R.Elbow			L.Wrist.Lat			R.Wrist.Lat
		X1	Y1	Z1	X2	Y2	Z2	X3	Y3	Z3	X4	Y4	Z4	X5	Y5	Z5	X6	Y6	Z6	X7	Y7	Z7	X8	Y8	Z8	X9	Y9	Z9	X10	Y10	Z10	X11	Y11	Z11	X12	Y12	Z12	X13	Y13	Z13	X14	Y14	Z14	X15	Y15	Z15	X16	Y16	Z16	X17	Y17	Z17	X18	Y18	Z18	X19	Y19	Z19	X20	Y20	Z20	X21	Y21	Z21	X22	Y22	Z22	X23	Y23	Z23	X24	Y24	Z24

1	0	-1.5357245	0.032640481	-0.061940176	-0.99487944	0.099784601	0.14641637	-1.6596079	0.070435486	-0.074253433	-1.1238316	0.079981594	0.15008118	-1.6488481	0.082423779	0.010123746	-1.1072234	0.1104882	0.067610637	NaN	NaN	NaN	-1.1598335	0.040958441	0.075081525	-1.514904	0.4140456	-0.092718223	-1.217241	0.45906065	0.16391475	-1.5288188	0.4167189	0.027846516	-1.2234081	0.43901028	0.035819983	-1.4327234	0.79379082	-0.15557025	-1.4032423	0.78475541	0.19068302	-1.3490577	0.83545479	-0.1193817	-1.3213332	0.8419444	0.12397619	-1.5123259	0.91206847	0.032855079	-1.3664417	1.3261675	-0.16852964	-1.37944	1.3013946	0.19332593	-1.4492436	1.3540673	0.011742359	-1.3583913	1.0034411	-0.24353365	NaN	NaN	NaN	-1.1489255	0.87400897	-0.19734553	-1.3929355	0.79443689	0.27761916
2	0.004	-1.5349015	0.03274544	-0.062795465	-0.97952684	0.10482345	0.14509361	-1.6593502	0.070622217	-0.074277961	-1.1090727	0.080913068	0.1505758	-1.6483358	0.08261029	0.010088368	-1.0934415	0.11164336	0.06779643	NaN	NaN	NaN	-1.1442251	0.040828313	0.075735535	-1.5118291	0.41307537	-0.092733508	-1.2092716	0.45777803	0.16413672	-1.5253686	0.41561359	0.027856491	-1.2170649	0.4369402	0.034887549	-1.4278205	0.79220718	-0.1554893	-1.3972894	0.78276564	0.1908706	-1.3436275	0.83386705	-0.11918091	-1.3152101	0.84027274	0.12403568	-1.5068981	0.91102641	0.034604263	-1.3609701	1.3244239	-0.16830576	-1.3742867	1.2993972	0.19366121	-1.4438513	1.3524162	0.012031932	-1.3509109	1.0017151	-0.2434607	NaN	NaN	NaN	-1.140564	0.87440032	-0.19565703	-1.3900104	0.7920766	0.27782442
3	0.008	-1.5342708	0.032809626	-0.063437729	-0.96496583	0.10948402	0.14421202	-1.659075	0.070833872	-0.074281954	-1.0946284	0.081893549	0.15094686	-1.6478665	0.082794988	0.010075561	-1.0799063	0.11283702	0.067931887	NaN	NaN	NaN	-1.1289522	0.040757141	0.076376017	-1.5086818	0.41209178	-0.092768603	-1.2020635	0.45633431	0.16411861	-1.5218763	0.41450672	0.027837773	-1.2107147	0.43495377	0.03393928	-1.4229197	0.79062951	-0.15532332	-1.390238	0.78101645	0.19129584	-1.3381384	0.83227167	-0.11889291	-1.3091272	0.83861427	0.12407998	-1.5014202	0.90994322	0.036295964	-1.3554788	1.3226826	-0.16808155	-1.3691274	1.29743	0.19400273	-1.4384401	1.3507532	0.012300229	-1.3434411	0.99998199	-0.24339062	NaN	NaN	NaN	-1.1322437	0.87476159	-0.19397302	-1.3870173	0.78969321	0.278039
4	0.012	-1.5340671	0.032818332	-0.063656604	-0.95142547	0.11365304	0.14380352	-1.6587722	0.071088197	-0.074256947	-1.0806932	0.08295117	0.15116388	-1.6473801	0.082999898	0.010088105	-1.0667766	0.11407323	0.067982599	NaN	NaN	NaN	-1.114261	0.040763457	0.076948125	-1.505427	0.41109719	-0.092827777	-1.1956586	0.45475296	0.16381362	-1.518281	0.41338964	0.02778572	-1.204368	0.43311484	0.032982399	-1.4179998	0.78905222	-0.15506709	-1.3821546	0.77948494	0.19193469	-1.3325759	0.83067655	-0.11849507	-1.3030541	0.83696424	0.12410545	-1.4957798	0.9086848	0.037674941	-1.349948	1.3209293	-0.16784665	-1.363937	1.2954848	0.19435845	-1.4329982	1.3490772	0.012532542	-1.3359731	0.99823175	-0.24331095	NaN	NaN	NaN	-1.1239795	0.87506274	-0.19229132	-1.3839517	0.78728487	0.27827301
5	0.016	-1.5343041	0.032789449	-0.063468816	-0.93875142	0.11739097	0.14360801	-1.6584395	0.071389912	-0.074210258	-1.0673537	0.084066713	0.15127023	-1.6467369	0.08327018	0.010101505	-1.0541533	0.11530815	0.067934163	NaN	NaN	NaN	-1.100278	0.040840392	0.07738546	-1.5020727	0.41010674	-0.092905172	-1.1896451	0.45316959	0.1633156	-1.5145824	0.41226327	0.027719882	-1.1980383	0.43145797	0.032041096	-1.4130434	0.78747208	-0.1547619	-1.3740643	0.77795739	0.19254458	-1.3270331	0.82908333	-0.11810826	-1.2969594	0.83531717	0.12411913	-1.4899361	0.90719007	0.03858277	-1.3443797	1.3191497	-0.1675882	-1.3587044	1.2935467	0.19473537	-1.4275268	1.3474033	0.012750221	-1.3284991	0.9964633	-0.24318519	NaN	NaN	NaN	-1.1157891	0.87528419	-0.19060891	-1.3808518	0.78486786	0.2785396
6	0.02	-1.5346821	0.032748784	-0.0631552	-0.92679095	0.12076704	0.1434054	-1.6580805	0.071736703	-0.074156584	-1.0546358	0.085175702	0.15129473	-1.645797	0.083648701	0.010073802	-1.0420845	0.1164726	0.067780441	NaN	NaN	NaN	-1.0870062	0.040971442	0.077640512	-1.4986318	0.40913215	-0.092993546	-1.1836563	0.4516903	0.16273211	-1.5108087	0.41114668	0.027662583	-1.1917104	0.42998173	0.03115505	-1.4080467	0.78589496	-0.15445062	-1.3666958	0.77628959	0.19294856	-1.3216712	0.82744647	-0.11799531	-1.2908421	0.83367386	0.1241269	-1.4839657	0.90554043	0.039135108	-1.3387852	1.3173478	-0.16730456	-1.3534343	1.291618	0.19513783	-1.4220183	1.3457515	0.013009496	-1.3210131	0.9946881	-0.24297282	NaN	NaN	NaN	-1.1076839	0.87542666	-0.18892398	-1.3777432	0.78245967	0.27884913
7	0.024	-1.5349213	0.03271022	-0.062958979	-0.91548641	0.12381109	0.14311351	-1.6577003	0.072134265	-0.07410788	-1.0425702	0.086194056	0.15120112	-1.64461	0.084123525	0.010000527	-1.0305726	0.11751185	0.067516401	NaN	NaN	NaN	-1.0744065	0.041125112	0.077681756	-1.4950944	0.40817747	-0.093082993	-1.1774641	0.45037014	0.16214984	-1.5069319	0.41006574	0.027618674	-1.1853617	0.42865983	0.03036986	-1.4030156	0.78432795	-0.15417487	-1.3599883	0.77449448	0.1931698	-1.3165959	0.82567471	-0.11838526	-1.2847052	0.83203883	0.12412851	-1.477968	0.90385009	0.039544145	-1.3331733	1.3155495	-0.16700445	-1.348126	1.289702	0.19556872	-1.4164636	1.3441353	0.013343281	-1.3135244	0.99292782	-0.24267667	NaN	NaN	NaN	-1.0996612	0.87550613	-0.18723817	-1.3746161	0.78007574	0.27920109
8	0.028	-1.5349842	0.032678351	-0.062912518	-0.90479735	0.12649922	0.14272074	-1.6572943	0.072600264	-0.07407361	-1.0311927	0.087049146	0.15092782	-1.6436684	0.084585328	0.010000898	-1.019607	0.11840496	0.067142612	NaN	NaN	NaN	-1.0624579	0.041262251	0.077491145	-1.4914268	0.40724216	-0.093158441	-1.1709376	0.44922773	0.16162862	-1.5028784	0.409028	0.027576033	-1.1789751	0.42746327	0.029697756	-1.3979531	0.78277342	-0.15395057	-1.3535706	0.77265152	0.1933203	-1.3117311	0.8237188	-0.1192092	-1.2785378	0.83041569	0.12412182	-1.4719953	0.90219831	0.039963309	-1.3275451	1.3137838	-0.16668895	-1.3427695	1.2877956	0.196032	-1.4108664	1.3425501	0.013716084	-1.3060547	0.99120256	-0.24234344	NaN	NaN	NaN	-1.0917118	0.87553914	-0.18555534	-1.3714231	0.777728	0.279588
9	0.032	-1.5349582	0.032652661	-0.06294279	-0.89468389	0.12875054	0.14226013	-1.6568511	0.073150509	-0.074066286	-1.0205091	0.087696778	0.15046225	-1.6438756	0.084847772	0.010337099	-1.0092039	0.11914501	0.06666292	NaN	NaN	NaN	-1.0511723	0.041346199	0.077073546	-1.4876003	0.40632528	-0.093206693	-1.1640712	0.44824257	0.1611859	-1.4986266	0.40801646	0.027524757	-1.1725289	0.42637254	0.029109214	-1.3928521	0.78123217	-0.15374693	-1.3471586	0.77083086	0.1934754	-1.3067866	0.82169193	-0.12003167	-1.2723243	0.8288044	0.12410368	-1.4660612	0.90062483	0.040454194	-1.3218988	1.3120623	-0.16634613	-1.3373617	1.2859068	0.19653114	-1.4052352	1.3409808	0.014065002	-1.2986193	0.98951858	-0.24200071	NaN	NaN	NaN	-1.0838346	0.87553263	-0.18388288	-1.3681064	0.77542538	0.28000264
10	0.036	-1.5349134	0.032629018	-0.062989033	-0.88512417	0.13046244	0.1417975	-1.65637	0.073789471	-0.074097063	-1.0104958	0.088111009	0.14984231	-1.645825	0.084801801	0.011199027	-0.99939677	0.11970912	0.066076112	NaN	NaN	NaN	-1.0405856	0.04133705	0.07646931	-1.4836267	0.40542691	-0.093229629	-1.1569601	0.44737041	0.16080142	-1.4942217	0.40701994	0.027463539	-1.1660028	0.42537849	0.028573215	-1.3877014	0.77970344	-0.15351912	-1.3406209	0.76907091	0.19365786	-1.3014352	0.81981616	-0.12037969	-1.2660525	0.82720584	0.12406839	-1.4601696	0.89913408	0.041005187	-1.3162297	1.3103793	-0.16597011	-1.3319053	1.2840513	0.19706565	-1.3995656	1.3394232	0.014382156	-1.2912227	0.98787261	-0.24163745	NaN	NaN	NaN	-1.0760395	0.87548474	-0.18223515	-1.3646338	0.77317474	0.28044225
